<?xml version="1.0" encoding="UTF-8" standalone="no"?>
<!-- Created with Inkscape (http://www.inkscape.org/) -->

<svg
   xmlns:dc="http://purl.org/dc/elements/1.1/"
   xmlns:cc="http://creativecommons.org/ns#"
   xmlns:rdf="http://www.w3.org/1999/02/22-rdf-syntax-ns#"
   xmlns:svg="http://www.w3.org/2000/svg"
   xmlns="http://www.w3.org/2000/svg"
   xmlns:sodipodi="http://sodipodi.sourceforge.net/DTD/sodipodi-0.dtd"
   xmlns:inkscape="http://www.inkscape.org/namespaces/inkscape"
   width="71"
   height="106.00002"
   id="svg2"
   version="1.1"
   inkscape:version="0.48.2 r9819"
   sodipodi:docname="ship.svg">
  <defs
     id="defs4" />
  <sodipodi:namedview
     id="base"
     pagecolor="#ffffff"
     bordercolor="#666666"
     borderopacity="1.0"
     inkscape:pageopacity="0.0"
     inkscape:pageshadow="2"
     inkscape:zoom="2.8"
     inkscape:cx="12.820403"
     inkscape:cy="69.002432"
     inkscape:document-units="px"
     inkscape:current-layer="layer1"
     showgrid="true"
     showguides="true"
     inkscape:guide-bbox="true"
     inkscape:snap-grids="true"
     inkscape:snap-to-guides="true"
     inkscape:snap-page="true"
     inkscape:window-width="1374"
     inkscape:window-height="878"
     inkscape:window-x="-8"
     inkscape:window-y="-8"
     inkscape:window-maximized="1"
     fit-margin-top="0"
     fit-margin-left="0"
     fit-margin-right="0"
     fit-margin-bottom="0">
    <inkscape:grid
       type="xygrid"
       id="grid2985"
       empspacing="5"
       visible="true"
       enabled="true"
       snapvisiblegridlinesonly="true" />
    <sodipodi:guide
       orientation="0,1"
       position="-294.80968,-14.499983"
       id="guide3009" />
    <sodipodi:guide
       orientation="1,0"
       position="35.5,-4.4999826"
       id="guide3291" />
  </sodipodi:namedview>
  <metadata
     id="metadata7">
    <rdf:RDF>
      <cc:Work
         rdf:about="">
        <dc:format>image/svg+xml</dc:format>
        <dc:type
           rdf:resource="http://purl.org/dc/dcmitype/StillImage" />
        <dc:title></dc:title>
      </cc:Work>
    </rdf:RDF>
  </metadata>
  <g
     inkscape:label="Layer 1"
     inkscape:groupmode="layer"
     id="layer1"
     transform="translate(-164.5,-931.86218)">
    <path
       style="fill:none;stroke:#000000;stroke-width:1px;stroke-linecap:butt;stroke-linejoin:miter;stroke-opacity:1"
       d="m 200,1022.3622 5,-5 20,-5 5,25 5,-5 -5,-65.00002 -10,-30 -20,-5 -20,5 -10,30 -5,65.00002 5,5 5,-25 20,5 z"
       id="path3293"
       inkscape:connector-curvature="0" />
    <path
       style="fill:none;stroke:#000000;stroke-width:1px;stroke-linecap:butt;stroke-linejoin:miter;stroke-opacity:1"
       d="m 225,1012.3622 0,-5 -20,5 0,5 z"
       id="path3295"
       inkscape:connector-curvature="0" />
    <path
       style="fill:none;stroke:#000000;stroke-width:1px;stroke-linecap:butt;stroke-linejoin:miter;stroke-opacity:1"
       d="m 195,1017.3622 0,-5 -20,-5 0,5 z"
       id="path3297"
       inkscape:connector-curvature="0" />
    <path
       style="fill:none;stroke:#000000;stroke-width:1px;stroke-linecap:butt;stroke-linejoin:miter;stroke-opacity:1"
       d="m 180,957.36218 5,-5 5,5 -5,20 z"
       id="path3299"
       inkscape:connector-curvature="0" />
    <path
       style="fill:none;stroke:#000000;stroke-width:1px;stroke-linecap:butt;stroke-linejoin:miter;stroke-opacity:1"
       d="m 210,957.36218 5,-5 5,5 -5,20 z"
       id="path3301"
       inkscape:connector-curvature="0" />
    <path
       style="fill:none;stroke:#000000;stroke-width:1px;stroke-linecap:butt;stroke-linejoin:miter;stroke-opacity:1"
       d="m 200,962.36218 -5,5 0,10 -5,5 5,15 0,-10 10,0 0,10 5,-10 -5,-10 0,-10 -5,-5 z"
       id="path3303"
       inkscape:connector-curvature="0" />
    <path
       style="fill:none;stroke:#000000;stroke-width:1px;stroke-linecap:butt;stroke-linejoin:miter;stroke-opacity:1"
       d="m 195,997.36218 5,5.00002 5,-5.00002 0,-10 -10,0 z"
       id="path3305"
       inkscape:connector-curvature="0" />
    <path
       style="fill:none;stroke:#000000;stroke-width:1px;stroke-linecap:butt;stroke-linejoin:miter;stroke-opacity:1"
       d="m 200,937.36218 -20,5 -10,25 10,-30 20,-5 20,5 10,30 -10,-25 z"
       id="path3307"
       inkscape:connector-curvature="0" />
    <path
       style="fill:none;stroke:#000000;stroke-width:1px;stroke-linecap:butt;stroke-linejoin:miter;stroke-opacity:1"
       d="m 225,982.36218 0,5 -10,5 0,-5"
       id="path3309"
       inkscape:connector-curvature="0" />
    <path
       style="fill:none;stroke:#000000;stroke-width:1px;stroke-linecap:butt;stroke-linejoin:miter;stroke-opacity:1"
       d="m 215,997.36218 0,5.00002 10,-5.00002 0,-5"
       id="path3311"
       inkscape:connector-curvature="0" />
    <path
       style="fill:none;stroke:#000000;stroke-width:1px;stroke-linecap:butt;stroke-linejoin:miter;stroke-opacity:1"
       d="m 185,987.36218 0,5 -10,-5 0,-5"
       id="path3313"
       inkscape:connector-curvature="0" />
    <path
       style="fill:none;stroke:#000000;stroke-width:1px;stroke-linecap:butt;stroke-linejoin:miter;stroke-opacity:1"
       d="m 185,997.36218 0,5.00002 -10,-5.00002 0,-5"
       id="path3315"
       inkscape:connector-curvature="0" />
    <path
       style="fill:#483737"
       d=""
       id="path3319"
       inkscape:connector-curvature="0" />
    <path
       style="fill:#483737"
       d="m 220.57948,942.15201 c -0.0631,-0.18945 -4.29818,-1.36811 -10.38035,-2.88899 l -10.27368,-2.56899 -10.16468,2.53644 c -5.59058,1.39505 -10.24818,2.65958 -10.35022,2.81007 -0.35051,0.51693 -0.19555,-0.22289 0.45729,-2.1832 0.61714,-1.85309 0.69824,-1.96607 1.57837,-2.19869 0.51028,-0.13487 4.87629,-1.23055 9.70222,-2.43485 l 8.77443,-2.18963 9.80454,2.44973 9.80453,2.44973 0.69923,2.14707 c 0.38457,1.18089 0.64427,2.20202 0.5771,2.26919 -0.0672,0.0672 -0.17012,-0.0219 -0.22878,-0.19788 l 0,0 z"
       id="path3321"
       inkscape:connector-curvature="0" />
    <path
       style="fill:#6c5353"
       d=""
       id="path3323"
       inkscape:connector-curvature="0" />
    <path
       style="fill:#6c5353"
       d="m 167.56479,1033.9283 -1.92972,-1.9631 2.48718,-32.17324 2.48718,-32.17325 4.84468,-12.14719 c 2.66458,-6.68096 4.97068,-12.27454 5.12468,-12.43018 0.15399,-0.15564 4.56882,-1.34706 9.81074,-2.6476 l 9.53075,-2.36462 9.6222,2.39506 c 5.29221,1.31729 9.71421,2.45189 9.82665,2.52134 0.11244,0.0694 2.42471,5.69473 5.13838,12.50063 l 4.93394,12.37437 2.45896,32.15219 2.45895,32.15219 -1.92891,1.9289 c -1.06091,1.0609 -1.97198,1.8773 -2.02461,1.8142 -0.0526,-0.063 -1.13655,-5.3423 -2.4087,-11.7315 -2.12544,-10.6747 -2.313,-11.8574 -2.31292,-14.584 4e-5,-1.6321 -0.0852,-2.9641 -0.18933,-2.96 -0.10417,0 -4.84873,1.1757 -10.54347,2.6038 l -10.35406,2.5964 -0.0711,2.6364 -0.0711,2.6364 -2.19657,2.2098 -2.19657,2.2098 -2.21484,-2.2045 -2.21484,-2.2046 0,-2.5841 0,-2.584 -0.94702,-0.2501 c -0.52086,-0.1375 -5.09496,-1.2829 -10.16466,-2.5453 -5.06971,-1.2624 -9.41652,-2.3551 -9.65959,-2.4283 -0.40188,-0.121 -0.4419,0.1145 -0.44153,2.5987 3.6e-4,2.4259 -0.25517,4.0185 -2.28198,14.2223 -1.25532,6.3197 -2.36353,11.692 -2.46268,11.9383 -0.15006,0.3728 -0.50388,0.1187 -2.11001,-1.5152 z m 17.96594,-33.6566 0,-3.03048 -0.63135,0 c -0.62085,0 -0.63134,0.0336 -0.63134,2.02171 l 0,2.02167 -4.29315,-2.14935 -4.29315,-2.14938 0,-2.39771 c 0,-2.3892 -0.002,-2.39771 -0.63134,-2.39771 l -0.63135,0 0,2.77679 0,2.77679 5.49271,2.76557 c 3.02098,1.521 5.52111,2.7716 5.55584,2.779 0.0347,0.01 0.0631,-1.3502 0.0631,-3.0169 z m 34.59992,0.2514 5.55364,-2.779 0,-2.77683 0,-2.77682 -0.63134,0 c -0.628,0 -0.63135,0.0124 -0.63135,2.33933 l 0,2.33933 -4.41941,2.20543 -4.41942,2.20546 0,-2.01941 c 0,-1.98564 -0.0106,-2.01937 -0.63135,-2.01937 l -0.63134,0 0,3.03048 c 0,1.6667 0.0578,3.0304 0.12846,3.0304 0.0707,0 2.62761,-1.2505 5.68211,-2.779 z m -17.24812,-0.062 2.5693,-2.58854 2.63338,-5.30871 2.63338,-5.3087 -2.47895,-4.91909 -2.47896,-4.91909 -0.0135,-5.17291 -0.0135,-5.1729 -2.71048,-2.71891 c -1.49076,-1.4954 -2.8242,-2.71891 -2.9632,-2.71891 -0.13899,0 -1.47623,1.21971 -2.97163,2.71048 l -2.71891,2.71048 0,5.05075 0,5.05076 -2.55622,2.56495 -2.55623,2.56496 2.55571,7.66251 2.5557,7.6625 2.711,2.71947 c 1.49105,1.4956 2.82861,2.7194 2.97236,2.7194 0.14374,0 1.41754,-1.1648 2.83065,-2.5885 z m -17.3518,-10.29095 0,-3.03046 -0.63135,0 c -0.62082,0 -0.63134,0.0337 -0.63134,2.02031 0,1.11116 -0.0559,2.0203 -0.1243,2.0203 -0.0684,0 -2.00029,-0.93595 -4.29315,-2.07989 l -4.16885,-2.07989 0,-2.33953 c 0,-2.32713 -0.003,-2.33952 -0.63134,-2.33952 l -0.63135,0 0,2.71753 0,2.71754 5.36644,2.69766 c 2.95154,1.48371 5.45166,2.70412 5.55584,2.71203 0.10417,0.008 0.1894,-1.34933 0.1894,-3.01608 z m 34.72247,0.3184 5.43109,-2.71206 0,-2.71751 0,-2.71751 -0.63134,0 c -0.62664,0 -0.63135,0.0169 -0.63135,2.27144 l 0,2.27143 -4.29034,2.14798 c -2.35969,1.18139 -4.34843,2.14798 -4.41942,2.14798 -0.071,0 -0.12907,-0.90914 -0.12907,-2.0203 0,-1.98664 -0.0105,-2.02031 -0.63135,-2.02031 l -0.63134,0 0,3.03046 c 0,1.8397 0.0986,3.03046 0.25102,3.03046 0.13805,0 2.695,-1.22043 5.6821,-2.71206 z m -32.08609,-23.23763 2.53505,-10.16606 -2.83689,-2.8369 -2.8369,-2.83689 -2.86797,2.85984 -2.86798,2.85984 2.55095,10.21689 c 3.39075,13.58048 2.9113,13.58781 6.32374,-0.0967 z m 27.6466,9.3453 c 0.13773,-0.52086 1.29543,-5.13425 2.57267,-10.25197 l 2.32225,-9.30496 -2.8155,-2.8155 -2.8155,-2.8155 -2.89376,2.90282 -2.89377,2.90281 2.54651,10.16466 c 2.44461,9.75788 2.57013,10.16466 3.1366,10.16466 0.46901,0 0.64147,-0.19432 0.8405,-0.94702 z"
       id="path3325"
       inkscape:connector-curvature="0" />
    <path
       style="fill:#000000"
       d="m 185.27819,1014.3095 c -4.51412,-1.1433 -8.52,-2.1579 -8.90197,-2.2547 -0.67875,-0.172 -0.69448,-0.2181 -0.69448,-2.0343 l 0,-1.8583 9.28078,2.32 9.28078,2.32 0.0742,1.816 c 0.0659,1.6124 0.0234,1.8133 -0.3788,1.7929 -0.24916,-0.013 -4.14638,-0.9583 -8.6605,-2.1016 z"
       id="path3327"
       inkscape:connector-curvature="0" />
    <path
       style="fill:#000000"
       d="m 205.78585,1014.6182 0.0742,-1.816 9.28078,-2.32 9.28077,-2.32 0,1.8316 0,1.8316 -9.21515,2.3044 c -5.06834,1.2674 -9.27808,2.3043 -9.35498,2.3043 -0.0769,0 -0.10643,-0.8172 -0.0656,-1.8159 z"
       id="path3329"
       inkscape:connector-curvature="0" />
    <path
       style="fill:#87cdde;fill-opacity:1"
       d="m 205.64731,990.63935 -0.0145,-3.8512 -5.68211,0 -5.68211,0 -0.0196,3.09359 -0.0196,3.09359 -1.74824,-5.17248 -1.74824,-5.17247 2.39915,-2.40819 2.39915,-2.40818 0,-5.05151 0,-5.05151 2.21484,-2.20458 2.21484,-2.20458 2.20458,2.21484 2.20457,2.21484 0,4.85469 0,4.85469 2.4587,4.92508 2.4587,4.92508 -1.81281,3.59975 -1.81281,3.59976 -0.0145,-3.85121 z"
       id="path4101"
       inkscape:connector-curvature="0" />
    <path
       style="fill:#87cdde;fill-opacity:1"
       d="m 197.73582,999.22079 -2.20458,-2.21484 0,-4.47756 0,-4.47755 4.41942,0 4.41941,0 0,4.48781 0,4.48782 -2.21483,2.20458 -2.21484,2.20455 -2.20458,-2.21481 0,0 z"
       id="path4103"
       inkscape:connector-curvature="0" />
    <path
       style="fill:#550000;fill-opacity:1"
       d="m 184.72158,973.52989 c -0.1525,-0.55558 -1.11917,-4.38101 -2.14816,-8.50094 l -1.87087,-7.4908 2.11293,-2.10196 2.11294,-2.10196 2.15752,2.15752 2.15753,2.15753 -2.12231,8.44538 c -2.04632,8.14304 -2.13223,8.40922 -2.39958,7.43523 z"
       id="path4105"
       inkscape:connector-curvature="0" />
    <path
       style="fill:#550000;fill-opacity:1"
       d="m 214.8905,974.16124 c -0.0831,-0.20835 -1.05917,-4.01536 -2.16908,-8.46003 l -2.01802,-8.08122 2.13664,-2.14477 2.13664,-2.14477 2.15941,2.15941 2.15941,2.15942 -2.12697,8.44538 c -1.16983,4.64496 -2.19495,8.27492 -2.27803,8.06658 z"
       id="path4107"
       inkscape:connector-curvature="0" />
  </g>
</svg>
